<svg width="481" height="126" viewBox="0 0 481 126" fill="none" xmlns="http://www.w3.org/2000/svg">
<path d="M153.234 86H118.676V35.5859H153.234V45.6758H128.766V55.7656H145.324V65.8555H128.766V75.9102H153.234V86ZM194.684 86H192.363L188.637 80.832C187.723 81.6523 186.75 82.4258 185.719 83.1523C184.711 83.8555 183.645 84.4766 182.52 85.0156C181.395 85.5312 180.234 85.9414 179.039 86.2461C177.867 86.5508 176.672 86.7031 175.453 86.7031C172.805 86.7031 170.309 86.2578 167.965 85.3672C165.645 84.4766 163.605 83.1875 161.848 81.5C160.113 79.7891 158.742 77.7031 157.734 75.2422C156.727 72.7812 156.223 69.9805 156.223 66.8398C156.223 63.9102 156.727 61.2266 157.734 58.7891C158.742 56.3281 160.113 54.2188 161.848 52.4609C163.605 50.7031 165.645 49.3438 167.965 48.3828C170.309 47.3984 172.805 46.9062 175.453 46.9062C176.672 46.9062 177.879 47.0586 179.074 47.3633C180.27 47.668 181.43 48.0898 182.555 48.6289C183.68 49.168 184.746 49.8008 185.754 50.5273C186.785 51.2539 187.746 52.0391 188.637 52.8828L192.363 48.418H194.684V86ZM185.016 66.8398C185.016 65.5273 184.758 64.2617 184.242 63.043C183.75 61.8008 183.07 60.7109 182.203 59.7734C181.336 58.8125 180.316 58.0508 179.145 57.4883C177.996 56.9023 176.766 56.6094 175.453 56.6094C174.141 56.6094 172.898 56.832 171.727 57.2773C170.578 57.7227 169.57 58.3789 168.703 59.2461C167.859 60.1133 167.191 61.1914 166.699 62.4805C166.207 63.7461 165.961 65.1992 165.961 66.8398C165.961 68.4805 166.207 69.9453 166.699 71.2344C167.191 72.5 167.859 73.5664 168.703 74.4336C169.57 75.3008 170.578 75.957 171.727 76.4023C172.898 76.8477 174.141 77.0703 175.453 77.0703C176.766 77.0703 177.996 76.7891 179.145 76.2266C180.316 75.6406 181.336 74.8789 182.203 73.9414C183.07 72.9805 183.75 71.8906 184.242 70.6719C184.758 69.4297 185.016 68.1523 185.016 66.8398ZM220.91 86C218.59 86 216.41 85.5664 214.371 84.6992C212.332 83.8086 210.539 82.6016 208.992 81.0781C207.469 79.5312 206.262 77.7383 205.371 75.6992C204.504 73.6602 204.07 71.4805 204.07 69.1602V57.9805H199.395V48.418H204.07V33.3711H213.633V48.418H228.188V57.9805H213.633V69.1602C213.633 70.168 213.82 71.1172 214.195 72.0078C214.57 72.875 215.086 73.6367 215.742 74.293C216.398 74.9492 217.172 75.4766 218.062 75.875C218.953 76.25 219.902 76.4375 220.91 76.4375H228.188V86H220.91ZM275.965 86H265.91V45.6758H250.758V35.5859H291.082V45.6758H275.965V86ZM325.887 66.8398C325.887 69.6523 325.383 72.2773 324.375 74.7148C323.367 77.1289 321.996 79.2266 320.262 81.0078C318.527 82.7656 316.488 84.1602 314.145 85.1914C311.824 86.1992 309.328 86.7031 306.656 86.7031C304.008 86.7031 301.512 86.1992 299.168 85.1914C296.848 84.1602 294.809 82.7656 293.051 81.0078C291.316 79.2266 289.945 77.1289 288.938 74.7148C287.93 72.2773 287.426 69.6523 287.426 66.8398C287.426 63.9805 287.93 61.332 288.938 58.8945C289.945 56.457 291.316 54.3594 293.051 52.6016C294.809 50.8203 296.848 49.4258 299.168 48.418C301.512 47.4102 304.008 46.9062 306.656 46.9062C309.328 46.9062 311.824 47.3867 314.145 48.3477C316.488 49.2852 318.527 50.6328 320.262 52.3906C321.996 54.125 323.367 56.2227 324.375 58.6836C325.383 61.1211 325.887 63.8398 325.887 66.8398ZM316.219 66.8398C316.219 65.293 315.961 63.8984 315.445 62.6562C314.953 61.3906 314.273 60.3125 313.406 59.4219C312.539 58.5078 311.52 57.8164 310.348 57.3477C309.199 56.8555 307.969 56.6094 306.656 56.6094C305.344 56.6094 304.102 56.8555 302.93 57.3477C301.781 57.8164 300.773 58.5078 299.906 59.4219C299.062 60.3125 298.395 61.3906 297.902 62.6562C297.41 63.8984 297.164 65.293 297.164 66.8398C297.164 68.293 297.41 69.6406 297.902 70.8828C298.395 72.125 299.062 73.2031 299.906 74.1172C300.773 75.0312 301.781 75.7578 302.93 76.2969C304.102 76.8125 305.344 77.0703 306.656 77.0703C307.969 77.0703 309.199 76.8242 310.348 76.332C311.52 75.8398 312.539 75.1484 313.406 74.2578C314.273 73.3672 314.953 72.2891 315.445 71.0234C315.961 69.7578 316.219 68.3633 316.219 66.8398ZM387.691 86H352.395V35.5859H362.484V75.9102H387.691V86ZM403.266 38.1172C403.266 39.0078 403.09 39.8398 402.738 40.6133C402.41 41.3867 401.953 42.0664 401.367 42.6523C400.781 43.2148 400.09 43.6719 399.293 44.0234C398.52 44.3516 397.688 44.5156 396.797 44.5156C395.906 44.5156 395.062 44.3516 394.266 44.0234C393.492 43.6719 392.812 43.2148 392.227 42.6523C391.664 42.0664 391.207 41.3867 390.855 40.6133C390.527 39.8398 390.363 39.0078 390.363 38.1172C390.363 37.25 390.527 36.4297 390.855 35.6562C391.207 34.8594 391.664 34.1797 392.227 33.6172C392.812 33.0312 393.492 32.5742 394.266 32.2461C395.062 31.8945 395.906 31.7188 396.797 31.7188C397.688 31.7188 398.52 31.8945 399.293 32.2461C400.09 32.5742 400.781 33.0312 401.367 33.6172C401.953 34.1797 402.41 34.8594 402.738 35.6562C403.09 36.4297 403.266 37.25 403.266 38.1172ZM401.613 86H391.945V48.3477H401.613V86ZM419.648 86L405.305 48.3477H416.238L424.465 71.832L432.656 48.3477H443.625L429.281 86H419.648ZM461.133 76.7891C461.508 76.9062 461.883 76.9883 462.258 77.0352C462.633 77.0586 463.008 77.0703 463.383 77.0703C464.32 77.0703 465.223 76.9414 466.09 76.6836C466.957 76.4258 467.766 76.0625 468.516 75.5938C469.289 75.1016 469.969 74.5156 470.555 73.8359C471.164 73.1328 471.656 72.3594 472.031 71.5156L479.062 78.582C478.172 79.8477 477.141 80.9844 475.969 81.9922C474.82 83 473.566 83.8555 472.207 84.5586C470.871 85.2617 469.453 85.7891 467.953 86.1406C466.477 86.5156 464.953 86.7031 463.383 86.7031C460.734 86.7031 458.238 86.2109 455.895 85.2266C453.574 84.2422 451.535 82.8711 449.777 81.1133C448.043 79.3555 446.672 77.2695 445.664 74.8555C444.656 72.418 444.152 69.7461 444.152 66.8398C444.152 63.8633 444.656 61.1445 445.664 58.6836C446.672 56.2227 448.043 54.125 449.777 52.3906C451.535 50.6562 453.574 49.3086 455.895 48.3477C458.238 47.3867 460.734 46.9062 463.383 46.9062C464.953 46.9062 466.488 47.0938 467.988 47.4688C469.488 47.8438 470.906 48.3828 472.242 49.0859C473.602 49.7891 474.867 50.6562 476.039 51.6875C477.211 52.6953 478.242 53.832 479.133 55.0977L461.133 76.7891ZM466.055 56.9961C465.609 56.832 465.164 56.7266 464.719 56.6797C464.297 56.6328 463.852 56.6094 463.383 56.6094C462.07 56.6094 460.828 56.8555 459.656 57.3477C458.508 57.8164 457.5 58.4961 456.633 59.3867C455.789 60.2773 455.121 61.3555 454.629 62.6211C454.137 63.8633 453.891 65.2695 453.891 66.8398C453.891 67.1914 453.902 67.5898 453.926 68.0352C453.973 68.4805 454.031 68.9375 454.102 69.4062C454.195 69.8516 454.301 70.2852 454.418 70.707C454.535 71.1289 454.688 71.5039 454.875 71.832L466.055 56.9961Z" fill="#831843"/>
<path d="M63.05 11.435C62.204 10.6998 61.1208 10.295 60 10.295C58.8792 10.295 57.7961 10.6998 56.95 11.435C53.1495 14.726 50.0797 18.7758 47.9381 23.3243C45.7965 27.8727 44.6305 32.8189 44.515 37.845C44.5119 38.3115 44.6401 38.7694 44.885 39.1664C45.13 39.5635 45.4817 39.8835 45.9 40.09C48.9427 41.672 51.796 43.5943 54.405 45.82C55.695 46.915 56.865 48.06 57.925 49.225C59.025 50.435 60.975 50.435 62.075 49.225C63.135 48.06 64.305 46.915 65.595 45.825C68.2018 43.5987 71.0535 41.6763 74.095 40.095C74.5142 39.8892 74.867 39.5695 75.1129 39.1724C75.3587 38.7753 75.4877 38.317 75.485 37.85C75.3705 32.823 74.205 27.8757 72.0633 23.3263C69.9217 18.777 66.8514 14.7263 63.05 11.435ZM60 90.215C64.0138 83.1485 70.0461 77.4413 77.3239 73.8246C84.6017 70.208 92.7936 68.8466 100.85 69.915C103.29 70.235 105.115 72.415 104.92 74.935C104.186 84.4746 99.8779 93.3855 92.8579 99.8865C85.8378 106.387 76.6228 109.999 67.055 110H52.945C43.3772 109.999 34.1622 106.387 27.1421 99.8865C20.1221 93.3855 15.8143 84.4746 15.08 74.935C14.989 73.7368 15.36 72.5491 16.1168 71.6157C16.8736 70.6822 17.9588 70.0737 19.15 69.915C27.2064 68.846 35.3986 70.207 42.6765 73.8237C49.9545 77.4404 55.9867 83.148 60 90.215ZM98.23 64.65C88.99 64.14 79.96 66.55 72.6 70.475C68.185 72.825 64.15 75.85 60.99 79.33C60.8644 79.4677 60.7115 79.5776 60.5411 79.6528C60.3706 79.7281 60.1863 79.7669 60 79.7669C59.8137 79.7669 59.6294 79.7281 59.4589 79.6528C59.2885 79.5776 59.1356 79.4677 59.01 79.33C55.855 75.845 51.81 72.825 47.4 70.475C40.06 66.56 31.05 64.155 21.845 64.65C18.195 58.9 15.695 52.3 15.095 45.65C15.0388 45.0213 15.1073 44.3877 15.2968 43.7856C15.4862 43.1834 15.7928 42.6247 16.1989 42.1415C16.605 41.6582 17.1026 41.26 17.6631 40.9697C18.2236 40.6795 18.836 40.5028 19.465 40.45C31.735 39.425 41.98 41.85 51.175 49.635C55.32 53.15 58.105 57.37 60 60.97C61.9 57.37 64.68 53.15 68.825 49.635C78.025 41.845 88.34 39.425 100.61 40.45C101.239 40.5028 101.851 40.6795 102.412 40.9697C102.972 41.26 103.47 41.6582 103.876 42.1415C104.282 42.6247 104.589 43.1834 104.778 43.7856C104.968 44.3877 105.036 45.0213 104.98 45.65C104.38 52.3 101.88 58.905 98.23 64.65Z" fill="#831843"/>
<path d="M130.902 109.887V112.629H121.996V109.887H130.902ZM123.039 102.938V120H119.523V102.938H123.039ZM133.41 102.938V120H129.906V102.938H133.41ZM144.974 120.234C143.989 120.234 143.107 120.078 142.325 119.766C141.544 119.445 140.88 119.004 140.333 118.441C139.794 117.879 139.38 117.227 139.091 116.484C138.802 115.734 138.657 114.938 138.657 114.094V113.625C138.657 112.664 138.794 111.785 139.068 110.988C139.341 110.191 139.732 109.5 140.239 108.914C140.755 108.328 141.38 107.879 142.114 107.566C142.849 107.246 143.677 107.086 144.599 107.086C145.497 107.086 146.294 107.234 146.989 107.531C147.685 107.828 148.267 108.25 148.735 108.797C149.212 109.344 149.571 110 149.814 110.766C150.056 111.523 150.177 112.367 150.177 113.297V114.703H140.099V112.453H146.86V112.195C146.86 111.727 146.775 111.309 146.603 110.941C146.439 110.566 146.189 110.27 145.853 110.051C145.517 109.832 145.087 109.723 144.564 109.723C144.118 109.723 143.735 109.82 143.415 110.016C143.095 110.211 142.833 110.484 142.63 110.836C142.435 111.188 142.286 111.602 142.185 112.078C142.091 112.547 142.044 113.062 142.044 113.625V114.094C142.044 114.602 142.114 115.07 142.255 115.5C142.403 115.93 142.61 116.301 142.876 116.613C143.15 116.926 143.478 117.168 143.86 117.34C144.251 117.512 144.693 117.598 145.185 117.598C145.794 117.598 146.36 117.48 146.884 117.246C147.415 117.004 147.872 116.641 148.255 116.156L149.896 117.938C149.63 118.32 149.267 118.688 148.806 119.039C148.353 119.391 147.806 119.68 147.165 119.906C146.525 120.125 145.794 120.234 144.974 120.234ZM161.823 117.141V111.492C161.823 111.086 161.756 110.738 161.623 110.449C161.49 110.152 161.283 109.922 161.002 109.758C160.729 109.594 160.373 109.512 159.936 109.512C159.561 109.512 159.237 109.578 158.963 109.711C158.69 109.836 158.479 110.02 158.33 110.262C158.182 110.496 158.108 110.773 158.108 111.094H154.733C154.733 110.555 154.858 110.043 155.108 109.559C155.358 109.074 155.721 108.648 156.198 108.281C156.674 107.906 157.24 107.613 157.897 107.402C158.561 107.191 159.303 107.086 160.123 107.086C161.108 107.086 161.983 107.25 162.748 107.578C163.514 107.906 164.115 108.398 164.553 109.055C164.998 109.711 165.221 110.531 165.221 111.516V116.941C165.221 117.637 165.264 118.207 165.35 118.652C165.436 119.09 165.561 119.473 165.725 119.801V120H162.315C162.151 119.656 162.026 119.227 161.94 118.711C161.862 118.188 161.823 117.664 161.823 117.141ZM162.268 112.277L162.291 114.188H160.405C159.959 114.188 159.573 114.238 159.244 114.34C158.916 114.441 158.647 114.586 158.436 114.773C158.225 114.953 158.069 115.164 157.967 115.406C157.873 115.648 157.826 115.914 157.826 116.203C157.826 116.492 157.893 116.754 158.026 116.988C158.158 117.215 158.35 117.395 158.6 117.527C158.85 117.652 159.143 117.715 159.479 117.715C159.987 117.715 160.428 117.613 160.803 117.41C161.178 117.207 161.467 116.957 161.67 116.66C161.881 116.363 161.99 116.082 161.998 115.816L162.889 117.246C162.764 117.566 162.592 117.898 162.373 118.242C162.162 118.586 161.893 118.91 161.565 119.215C161.237 119.512 160.842 119.758 160.381 119.953C159.92 120.141 159.373 120.234 158.74 120.234C157.936 120.234 157.205 120.074 156.549 119.754C155.901 119.426 155.385 118.977 155.002 118.406C154.627 117.828 154.44 117.172 154.44 116.438C154.44 115.773 154.565 115.184 154.815 114.668C155.065 114.152 155.432 113.719 155.916 113.367C156.408 113.008 157.022 112.738 157.756 112.559C158.49 112.371 159.342 112.277 160.311 112.277H162.268ZM174.265 102V120H170.878V102H174.265ZM186.145 107.32V109.711H178.762V107.32H186.145ZM180.59 104.191H183.965V116.18C183.965 116.547 184.012 116.828 184.106 117.023C184.208 117.219 184.356 117.355 184.551 117.434C184.747 117.504 184.993 117.539 185.29 117.539C185.5 117.539 185.688 117.531 185.852 117.516C186.024 117.492 186.168 117.469 186.286 117.445L186.297 119.93C186.008 120.023 185.696 120.098 185.36 120.152C185.024 120.207 184.653 120.234 184.247 120.234C183.504 120.234 182.856 120.113 182.301 119.871C181.754 119.621 181.333 119.223 181.036 118.676C180.739 118.129 180.59 117.41 180.59 116.52V104.191ZM194.24 102V120H190.865V102H194.24ZM193.759 113.215H192.834C192.841 112.332 192.959 111.52 193.185 110.777C193.412 110.027 193.736 109.379 194.158 108.832C194.58 108.277 195.084 107.848 195.67 107.543C196.263 107.238 196.92 107.086 197.638 107.086C198.263 107.086 198.83 107.176 199.338 107.355C199.853 107.527 200.295 107.809 200.662 108.199C201.037 108.582 201.326 109.086 201.529 109.711C201.732 110.336 201.834 111.094 201.834 111.984V120H198.435V111.961C198.435 111.398 198.353 110.957 198.189 110.637C198.033 110.309 197.802 110.078 197.498 109.945C197.201 109.805 196.834 109.734 196.396 109.734C195.912 109.734 195.498 109.824 195.154 110.004C194.818 110.184 194.548 110.434 194.345 110.754C194.142 111.066 193.994 111.434 193.9 111.855C193.806 112.277 193.759 112.73 193.759 113.215ZM220.086 102.938V120H216.582V102.938H220.086ZM232.903 116.496C232.903 116.254 232.833 116.035 232.692 115.84C232.552 115.645 232.29 115.465 231.907 115.301C231.532 115.129 230.989 114.973 230.278 114.832C229.638 114.691 229.04 114.516 228.485 114.305C227.938 114.086 227.462 113.824 227.056 113.52C226.657 113.215 226.345 112.855 226.118 112.441C225.892 112.02 225.778 111.539 225.778 111C225.778 110.469 225.892 109.969 226.118 109.5C226.353 109.031 226.685 108.617 227.114 108.258C227.552 107.891 228.083 107.605 228.708 107.402C229.341 107.191 230.052 107.086 230.841 107.086C231.942 107.086 232.888 107.262 233.677 107.613C234.474 107.965 235.083 108.449 235.505 109.066C235.935 109.676 236.149 110.371 236.149 111.152H232.774C232.774 110.824 232.704 110.531 232.563 110.273C232.431 110.008 232.22 109.801 231.931 109.652C231.649 109.496 231.282 109.418 230.829 109.418C230.454 109.418 230.13 109.484 229.856 109.617C229.583 109.742 229.372 109.914 229.224 110.133C229.083 110.344 229.013 110.578 229.013 110.836C229.013 111.031 229.052 111.207 229.13 111.363C229.216 111.512 229.353 111.648 229.54 111.773C229.728 111.898 229.97 112.016 230.267 112.125C230.571 112.227 230.946 112.32 231.392 112.406C232.306 112.594 233.122 112.84 233.841 113.145C234.56 113.441 235.13 113.848 235.552 114.363C235.974 114.871 236.185 115.539 236.185 116.367C236.185 116.93 236.06 117.445 235.81 117.914C235.56 118.383 235.2 118.793 234.731 119.145C234.263 119.488 233.7 119.758 233.044 119.953C232.395 120.141 231.665 120.234 230.853 120.234C229.673 120.234 228.673 120.023 227.853 119.602C227.04 119.18 226.423 118.645 226.001 117.996C225.587 117.34 225.38 116.668 225.38 115.98H228.579C228.595 116.441 228.712 116.812 228.931 117.094C229.157 117.375 229.442 117.578 229.786 117.703C230.138 117.828 230.517 117.891 230.923 117.891C231.36 117.891 231.724 117.832 232.013 117.715C232.302 117.59 232.52 117.426 232.669 117.223C232.825 117.012 232.903 116.77 232.903 116.496ZM254.437 117.293L257.835 102.938H259.734L260.167 105.328L256.546 120H254.507L254.437 117.293ZM252.691 102.938L255.503 117.293L255.269 120H252.995L249.21 102.938H252.691ZM263.155 117.234L265.933 102.938H269.413L265.64 120H263.366L263.155 117.234ZM260.8 102.938L264.222 117.352L264.128 120H262.089L258.445 105.316L258.913 102.938H260.8ZM279.453 120.234C278.469 120.234 277.586 120.078 276.805 119.766C276.024 119.445 275.36 119.004 274.813 118.441C274.274 117.879 273.86 117.227 273.571 116.484C273.282 115.734 273.137 114.938 273.137 114.094V113.625C273.137 112.664 273.274 111.785 273.547 110.988C273.821 110.191 274.211 109.5 274.719 108.914C275.235 108.328 275.86 107.879 276.594 107.566C277.328 107.246 278.157 107.086 279.078 107.086C279.977 107.086 280.774 107.234 281.469 107.531C282.164 107.828 282.746 108.25 283.215 108.797C283.692 109.344 284.051 110 284.293 110.766C284.535 111.523 284.657 112.367 284.657 113.297V114.703H274.578V112.453H281.34V112.195C281.34 111.727 281.254 111.309 281.082 110.941C280.918 110.566 280.668 110.27 280.332 110.051C279.996 109.832 279.567 109.723 279.043 109.723C278.598 109.723 278.215 109.82 277.895 110.016C277.575 110.211 277.313 110.484 277.11 110.836C276.914 111.188 276.766 111.602 276.664 112.078C276.571 112.547 276.524 113.062 276.524 113.625V114.094C276.524 114.602 276.594 115.07 276.735 115.5C276.883 115.93 277.09 116.301 277.356 116.613C277.629 116.926 277.957 117.168 278.34 117.34C278.731 117.512 279.172 117.598 279.664 117.598C280.274 117.598 280.84 117.48 281.364 117.246C281.895 117.004 282.352 116.641 282.735 116.156L284.375 117.938C284.11 118.32 283.746 118.688 283.285 119.039C282.832 119.391 282.285 119.68 281.645 119.906C281.004 120.125 280.274 120.234 279.453 120.234ZM296.302 117.141V111.492C296.302 111.086 296.236 110.738 296.103 110.449C295.97 110.152 295.763 109.922 295.482 109.758C295.208 109.594 294.853 109.512 294.415 109.512C294.04 109.512 293.716 109.578 293.443 109.711C293.169 109.836 292.958 110.02 292.81 110.262C292.662 110.496 292.587 110.773 292.587 111.094H289.212C289.212 110.555 289.337 110.043 289.587 109.559C289.837 109.074 290.201 108.648 290.677 108.281C291.154 107.906 291.72 107.613 292.376 107.402C293.04 107.191 293.783 107.086 294.603 107.086C295.587 107.086 296.462 107.25 297.228 107.578C297.994 107.906 298.595 108.398 299.033 109.055C299.478 109.711 299.701 110.531 299.701 111.516V116.941C299.701 117.637 299.744 118.207 299.83 118.652C299.915 119.09 300.04 119.473 300.205 119.801V120H296.794C296.63 119.656 296.505 119.227 296.419 118.711C296.341 118.188 296.302 117.664 296.302 117.141ZM296.747 112.277L296.771 114.188H294.884C294.439 114.188 294.052 114.238 293.724 114.34C293.396 114.441 293.126 114.586 292.915 114.773C292.705 114.953 292.548 115.164 292.447 115.406C292.353 115.648 292.306 115.914 292.306 116.203C292.306 116.492 292.372 116.754 292.505 116.988C292.638 117.215 292.83 117.395 293.08 117.527C293.33 117.652 293.622 117.715 293.958 117.715C294.466 117.715 294.908 117.613 295.283 117.41C295.658 117.207 295.947 116.957 296.15 116.66C296.361 116.363 296.47 116.082 296.478 115.816L297.369 117.246C297.244 117.566 297.072 117.898 296.853 118.242C296.642 118.586 296.372 118.91 296.044 119.215C295.716 119.512 295.322 119.758 294.861 119.953C294.4 120.141 293.853 120.234 293.22 120.234C292.415 120.234 291.685 120.074 291.029 119.754C290.38 119.426 289.865 118.977 289.482 118.406C289.107 117.828 288.919 117.172 288.919 116.438C288.919 115.773 289.044 115.184 289.294 114.668C289.544 114.152 289.912 113.719 290.396 113.367C290.888 113.008 291.501 112.738 292.236 112.559C292.97 112.371 293.822 112.277 294.79 112.277H296.747ZM308.745 102V120H305.358V102H308.745ZM320.625 107.32V109.711H313.242V107.32H320.625ZM315.07 104.191H318.445V116.18C318.445 116.547 318.492 116.828 318.586 117.023C318.687 117.219 318.836 117.355 319.031 117.434C319.226 117.504 319.472 117.539 319.769 117.539C319.98 117.539 320.168 117.531 320.332 117.516C320.504 117.492 320.648 117.469 320.765 117.445L320.777 119.93C320.488 120.023 320.175 120.098 319.84 120.152C319.504 120.207 319.133 120.234 318.726 120.234C317.984 120.234 317.336 120.113 316.781 119.871C316.234 119.621 315.812 119.223 315.515 118.676C315.218 118.129 315.07 117.41 315.07 116.52V104.191ZM328.72 102V120H325.345V102H328.72ZM328.239 113.215H327.313C327.321 112.332 327.438 111.52 327.665 110.777C327.891 110.027 328.216 109.379 328.637 108.832C329.059 108.277 329.563 107.848 330.149 107.543C330.743 107.238 331.399 107.086 332.118 107.086C332.743 107.086 333.309 107.176 333.817 107.355C334.333 107.527 334.774 107.809 335.141 108.199C335.516 108.582 335.805 109.086 336.009 109.711C336.212 110.336 336.313 111.094 336.313 111.984V120H332.915V111.961C332.915 111.398 332.833 110.957 332.669 110.637C332.512 110.309 332.282 110.078 331.977 109.945C331.68 109.805 331.313 109.734 330.876 109.734C330.391 109.734 329.977 109.824 329.634 110.004C329.298 110.184 329.028 110.434 328.825 110.754C328.622 111.066 328.473 111.434 328.38 111.855C328.286 112.277 328.239 112.73 328.239 113.215Z" fill="#FDF6F0"/>
</svg>
